HIERARCHY
ROOT hip
{
  OFFSET 0 0 0
  CHANNELS 6 Xposition Yposition Zposition Zrotation Yrotation Xrotation
  JOINT abdomen
  {
    OFFSET 0 20.6881 -0.73152
    CHANNELS 3 Zrotation Xrotation Yrotation
    JOINT chest
    {
      OFFSET 0 11.7043 -0.48768
      CHANNELS 3 Zrotation Xrotation Yrotation
      JOINT neck
      {
        OFFSET 0 22.1894 -2.19456
        CHANNELS 3 Zrotation Xrotation Yrotation
        JOINT head
        {
          OFFSET -0.24384 7.07133 1.2192
          CHANNELS 3 Zrotation Xrotation Yrotation
          JOINT leftEye
          {
            OFFSET 4.14528 8.04674 8.04672
            CHANNELS 3 Zrotation Xrotation Yrotation
            End Site
            {
              OFFSET 1 0 0
            }
          }
          JOINT rightEye
          {
            OFFSET -3.6576 8.04674 8.04672
            CHANNELS 3 Zrotation Xrotation Yrotation
            End Site
            {
              OFFSET 1 0 0
            }
          }
        }
      }
      JOINT rCollar
      {
        OFFSET -2.68224 19.2634 -4.8768
        CHANNELS 3 Zrotation Xrotation Yrotation
        JOINT rShldr
        {
          OFFSET -8.77824 -1.95073 1.46304
          CHANNELS 3 Zrotation Xrotation Yrotation
          JOINT rForeArm
          {
            OFFSET -28.1742 -1.7115 0.48768
            CHANNELS 3 Zrotation Xrotation Yrotation
            JOINT rHand
            {
              OFFSET -22.5879 0.773209 7.07136
              CHANNELS 3 Zrotation Xrotation Yrotation
              JOINT rThumb1
              {
                OFFSET -1.2192 -0.487915 3.41376
                CHANNELS 3 Zrotation Xrotation Yrotation
                JOINT rThumb2
                {
                  OFFSET -3.37035 -0.52449 3.41376
                  CHANNELS 3 Zrotation Xrotation Yrotation
                  End Site
                  {
                    OFFSET -1.78271 -1.18214 1.43049
                  }
                }
              }
              JOINT rIndex1
              {
                OFFSET -7.75947 0.938293 5.60832
                CHANNELS 3 Zrotation Xrotation Yrotation
                JOINT rIndex2
                {
                  OFFSET -2.54057 -0.884171 1.56538
                  CHANNELS 3 Zrotation Xrotation Yrotation
                  End Site
                  {
                    OFFSET -1.62519 -0.234802 1.16502
                  }
                }
              }
              JOINT rMid1
              {
                OFFSET -8.24714 1.18213 3.41376
                CHANNELS 3 Zrotation Xrotation Yrotation
                JOINT rMid2
                {
                  OFFSET -3.10165 -0.590103 1.0647
                  CHANNELS 3 Zrotation Xrotation Yrotation
                  End Site
                  {
                    OFFSET -2.48547 -0.328903 0.83742
                  }
                }
              }
              JOINT rRing1
              {
                OFFSET -8.82822 0.546677 1.51678
                CHANNELS 3 Zrotation Xrotation Yrotation
                JOINT rRing2
                {
                  OFFSET -2.60934 -0.819778 -0.0198488
                  CHANNELS 3 Zrotation Xrotation Yrotation
                  End Site
                  {
                    OFFSET -2.33842 -0.294052 0.168128
                  }
                }
              }
              JOINT rPinky1
              {
                OFFSET -8.27202 -0.0477905 -0.4584
                CHANNELS 3 Zrotation Xrotation Yrotation
                JOINT rPinky2
                {
                  OFFSET -1.82734 -0.647385 -0.700984
                  CHANNELS 3 Zrotation Xrotation Yrotation
                  End Site
                  {
                    OFFSET -1.69225 -0.51767 -0.607171
                  }
                }
              }
            }
          }
        }
      }
      JOINT lCollar
      {
        OFFSET 2.68224 19.2634 -4.8768
        CHANNELS 3 Zrotation Xrotation Yrotation
        JOINT lShldr
        {
          OFFSET 8.77824 -1.95073 1.46304
          CHANNELS 3 Zrotation Xrotation Yrotation
          JOINT lForeArm
          {
            OFFSET 28.1742 -1.7115 0.48768
            CHANNELS 3 Zrotation Xrotation Yrotation
            JOINT lHand
            {
              OFFSET 22.5879 0.773209 7.07136
              CHANNELS 3 Zrotation Xrotation Yrotation
              JOINT lThumb1
              {
                OFFSET 1.2192 -0.487915 3.41376
                CHANNELS 3 Zrotation Xrotation Yrotation
                JOINT lThumb2
                {
                  OFFSET 3.37035 -0.52449 3.41376
                  CHANNELS 3 Zrotation Xrotation Yrotation
                  End Site
                  {
                    OFFSET 1.78271 -1.18214 1.43049
                  }
                }
              }
              JOINT lIndex1
              {
                OFFSET 7.75947 0.938293 5.60832
                CHANNELS 3 Zrotation Xrotation Yrotation
                JOINT lIndex2
                {
                  OFFSET 2.54057 -0.884171 1.56538
                  CHANNELS 3 Zrotation Xrotation Yrotation
                  End Site
                  {
                    OFFSET 1.62519 -0.234802 1.16502
                  }
                }
              }
              JOINT lMid1
              {
                OFFSET 8.24714 1.18213 3.41376
                CHANNELS 3 Zrotation Xrotation Yrotation
                JOINT lMid2
                {
                  OFFSET 3.10165 -0.590103 1.0647
                  CHANNELS 3 Zrotation Xrotation Yrotation
                  End Site
                  {
                    OFFSET 2.48547 -0.328903 0.83742
                  }
                }
              }
              JOINT lRing1
              {
                OFFSET 8.82822 0.546677 1.51678
                CHANNELS 3 Zrotation Xrotation Yrotation
                JOINT lRing2
                {
                  OFFSET 2.60934 -0.819778 -0.0198488
                  CHANNELS 3 Zrotation Xrotation Yrotation
                  End Site
                  {
                    OFFSET 2.33842 -0.294052 0.168128
                  }
                }
              }
              JOINT lPinky1
              {
                OFFSET 8.27202 -0.0477905 -0.4584
                CHANNELS 3 Zrotation Xrotation Yrotation
                JOINT lPinky2
                {
                  OFFSET 1.82734 -0.647385 -0.700984
                  CHANNELS 3 Zrotation Xrotation Yrotation
                  End Site
                  {
                    OFFSET 1.69225 -0.51767 -0.607171
                  }
                }
              }
            }
          }
        }
      }
    }
  }
  JOINT rButtock
  {
    OFFSET -8.77824 4.35084 1.2192
    CHANNELS 3 Zrotation Xrotation Yrotation
    JOINT rThigh
    {
      OFFSET 0 -1.70687 -2.19456
      CHANNELS 3 Zrotation Xrotation Yrotation
      JOINT rShin
      {
        OFFSET 0 -36.8199 0.73152
        CHANNELS 3 Zrotation Xrotation Yrotation
        JOINT rFoot
        {
          OFFSET 0.73152 -45.1104 -5.12064
          CHANNELS 3 Zrotation Xrotation Yrotation
          End Site
          {
            OFFSET -1.1221 -3.69964 12.103
          }
        }
      }
    }
  }
  JOINT lButtock
  {
    OFFSET 8.77824 4.35084 1.2192
    CHANNELS 3 Zrotation Xrotation Yrotation
    JOINT lThigh
    {
      OFFSET 0 -1.70687 -2.19456
      CHANNELS 3 Zrotation Xrotation Yrotation
      JOINT lShin
      {
        OFFSET 0 -36.8199 0.73152
        CHANNELS 3 Zrotation Xrotation Yrotation
        JOINT lFoot
        {
          OFFSET -0.73152 -45.1104 -5.12064
          CHANNELS 3 Zrotation Xrotation Yrotation
          End Site
          {
            OFFSET 1.1221 -3.69964 12.103
          }
        }
      }
    }
  }
}
MOTION
Frames:	8
Frame Time:	0.03333
-17.025399999999998 79.5985 7.4433 147.12168 -40.044547 -168.962813 -6.314465 33.194977 0.0 -8.738709 -10.72099 4.771443 5.095036 14.103411 41.366668 -26.706878 -5.522477 -27.33931 15.496719 6.838307 47.412798 -17.2995 -0.30575 2.009673 -156.597522 -25.480372 154.857383 -25.119717 56.97962 17.322944 107.937839 12.300278 -25.421516 -142.652999 63.451466 119.439031 -1.65115 -2.459681 8.209673 -29.770102 2.531423 -43.393507 -68.188616 25.68323 35.863471 -50.26056 42.323153 67.813284 -154.321931 -39.487901 157.378452 -142.208851 30.793552 172.112412 5.224379 27.011153 -3.358194 88.295747 -58.194583 88.415087 68.8525 70.933734 -40.40431 -8.345462 -54.523706 26.311528 158.029124 -4.737491 -164.300674 36.854455 21.983288 -14.059273 141.586949 58.789134 134.951671 -1.247044 -14.480652 11.780685 -1.570031 4.564438 -0.840688 10.050919 -13.190375 1.024601 154.522257 16.061394 -106.076036 1.213309 -41.331799 12.286955 -31.88857 -49.700575 -16.671658 94.266661 54.168774 -77.96725 -18.598483 -1.27682 -10.924291 -166.108508 -1.409535 166.564624 160.320481 -31.252549 120.701043 166.705657 17.370315 99.76428 -1.25221 27.276732 2.005219 -31.088499 -39.246799 65.747155 53.881354 7.375056 80.311076 -12.854451 23.04657 -159.65563 -114.250555 54.246546 -18.85075 -165.465424 0.958265 90.129233 94.777784 18.812958 -22.395896 153.898859 -59.189365 43.899513
-18.7539 81.51899999999999 7.5226 144.837652 -33.61925 -169.447993 -11.120536 35.846067 -0.0 -8.541228 -12.829819 5.676403 -10.616907 28.776492 -118.092237 35.337652 16.549609 133.875905 7.832872 4.028701 54.383021 -24.40485 0.166817 -0.77139 -1.089708 12.129067 18.539606 -141.905914 19.858421 166.11125 17.366615 2.440321 -119.143903 172.578451 -17.731008 143.758035 -9.83177 5.550557 6.711473 -52.305051 49.037232 0.454787 -89.58502 31.56526 54.216223 2.091873 29.104871 32.564587 -137.444986 -63.463725 -179.471199 5.1738 -72.064034 -74.440448 -141.702 -10.370656 -161.571475 -139.111861 -5.55453 -135.205216 10.725079 29.065377 -8.947906 -17.89376 38.556079 75.808455 44.516774 69.800475 -45.065345 -52.69722 -20.804651 -45.310086 177.851137 74.070997 -70.652123 -177.954154 -2.492666 -132.393636 1.929412 4.977052 -3.233257 143.489574 -11.369842 -102.168219 1.310768 -44.871049 -1.433615 -13.179935 50.311559 -3.203773 23.435109 23.669429 -26.082288 170.344405 23.121188 -153.918554 -23.759837 -1.385564 -7.20128 54.021302 -56.499148 34.372229 24.527789 45.119157 -13.344225 19.977263 41.504087 -65.542528 -179.548313 45.72141 -0.630876 149.2217 25.019656 99.944674 37.508347 11.360246 -80.152626 158.54148 -22.109861 7.416036 1.939754 17.366256 -2.960949 99.993267 -37.371138 96.104728 45.738132 77.913 -134.47961 121.288175 -55.772672 -153.585937
-20.5856 83.24780000000001 7.959099999999999 142.012976 -25.56309 -168.704856 -19.905299 35.985289 31.643798 -12.159223 -9.203649 -22.575554 5.571566 15.124467 70.587498 -31.33885 6.149918 -44.208878 4.074369 2.417787 61.357222 -34.834965 0.213865 -0.681707 16.67156 -23.999596 14.582323 -2.686858 74.973012 29.46933 -35.269136 -49.012658 53.424008 -3.375597 8.357798 0.112451 3.127426 -5.144497 0.94603 -67.761006 35.835456 0.504096 -38.746999 13.814337 18.967675 -153.09909 -75.585838 110.910272 18.434781 63.874078 -21.573984 -54.745784 -30.414746 11.199678 -150.68212 6.5292 -164.85327 86.550134 50.474408 -99.112308 -21.827286 -19.388092 -23.520119 58.460648 6.073494 10.255313 -0.458614 -7.163938 9.030097 123.218981 -16.821498 170.659523 -94.679456 -3.651355 63.019932 119.008892 69.735586 -85.152691 0.492076 -1.306927 -4.526115 137.177311 1.771552 -95.392481 -125.732145 -56.858811 -102.685899 54.551973 -81.317461 92.231394 50.98794 39.941993 -42.832877 6.954555 49.466505 7.686631 116.874854 1.345887 -178.136292 -54.091099 25.665778 -0.658988 19.582257 46.989031 -10.864148 155.695701 -63.054051 169.378791 -171.61503 49.107247 -0.0 137.672813 22.595345 18.383826 -19.043997 31.86047 -26.636006 -122.480081 -54.943017 -12.475344 -26.675569 14.404665 -7.008247 121.766232 -22.527531 103.345927 67.574559 51.174422 89.314185 -98.983363 -20.085118 171.627604
-22.4222 85.0167 8.5691 140.025742 -19.176779 -167.989092 -20.940883 33.375416 -105.071543 14.624338 -4.762311 116.902519 -12.957217 16.735599 -66.712148 29.572025 -9.614045 95.501083 2.348236 1.651711 70.240053 -45.159011 1.711362 -4.113969 -132.78369 23.752595 134.465319 144.396983 -73.945499 145.788994 144.850278 45.33063 87.412757 174.785909 -4.436852 145.348081 -121.933519 32.287834 73.818458 -117.376409 -32.539668 135.231848 -16.843 -1.68174 8.221643 35.043338 4.031194 -37.917528 -167.893128 57.280477 177.017522 177.132731 -48.553337 -150.896609 -79.541962 -56.880259 -93.214769 -51.689209 -57.323184 -118.208469 156.689235 76.454915 -116.711523 -15.375703 -32.043582 39.252156 81.611843 -78.607718 105.711694 -2.97112 16.077689 31.290632 -82.249247 13.74389 -32.399071 70.922173 69.155028 -40.314923 173.224612 -2.595949 -85.378941 26.524216 -2.105342 -13.511225 76.824067 25.684449 -28.210692 -8.176666 32.370697 -31.719585 143.960806 27.52944 -120.261946 147.824424 -65.015732 -167.749257 45.920936 -69.028213 93.90673 111.620195 27.686301 -116.929165 160.423505 -15.782639 127.15284 -20.292283 41.181355 32.812102 26.453948 22.898969 2.382724 -71.319765 -25.195739 -150.485091 -30.693741 -15.126017 -172.3609 -11.599867 -37.937655 -86.661493 56.860363 40.870643 35.949135 -33.366701 -76.376358 76.651676 52.291169 10.855561 -126.882044 -21.384768 -61.636171 65.885921
-24.2383 86.4877 9.099599999999999 138.73902 -14.16701 -167.540081 -27.664468 35.906586 -0.0 -4.842526 -16.909305 15.415627 -11.190933 20.398459 -92.745406 35.729552 1.151706 117.658607 4.92036 3.896202 76.735308 -56.868838 4.250656 -7.841488 -2.552866 16.136323 18.648662 50.981503 -49.05347 37.519642 -73.383198 -4.933252 109.185333 19.600073 -46.466586 10.680266 -74.863976 45.320716 42.79899 -153.493598 -25.18468 136.017388 6.817804 -23.748197 -0.032398 -160.014087 58.739086 138.197044 -77.767161 -59.48921 -115.163551 66.339134 -5.747873 -14.347053 6.931191 43.352491 -4.15482 -143.329545 19.840192 126.223476 -4.866792 4.307281 0.196872 10.758805 -44.763529 -36.776903 85.879821 -79.081687 111.569854 58.127606 -50.613812 61.000689 165.969111 51.506239 118.319578 8.110618 3.371974 9.842293 176.782477 -0.172835 -87.922061 -30.448552 -68.140098 2.508523 146.973199 24.386546 -86.64799 155.767607 -8.199849 -75.613125 -11.821083 -29.188914 -3.064644 5.400862 -17.062843 -18.631755 -32.859456 11.293474 4.821302 33.531473 -0.651982 2.310036 166.832491 13.650467 135.26686 145.738133 -31.736321 109.539893 131.522584 45.279035 21.731929 176.999923 26.63219 -166.858551 -7.07377 -29.261225 -127.70591 -79.492844 53.939163 1.184074 50.870556 43.971627 37.767947 -15.382403 -81.019089 180.0 15.751404 -44.074805 139.146395 148.103804 -13.679025 -94.072185
-26.052999999999997 87.4398 9.328899999999999 138.031911 -9.8383 -167.45209 -28.674602 31.268132 -133.502617 13.594714 5.468528 152.448217 11.146262 14.400516 83.819591 -33.895076 20.183116 -54.172502 14.928005 12.637038 80.406784 -68.588911 8.264953 -12.094435 5.732051 0.082464 7.52268 -75.454862 56.280349 100.947023 20.999637 81.267288 -138.480301 169.562572 -22.630072 145.212842 -101.917721 45.967103 67.263568 -78.062444 37.467944 33.745136 -165.09973 -43.984629 123.869918 89.753617 -42.946354 42.364259 -164.41407 29.369765 -179.917074 -123.109146 -57.053315 -123.037272 -13.242771 86.149539 30.985762 -147.967275 55.089876 131.155662 -37.761144 -45.228288 -27.009171 -14.389892 11.232644 -32.501849 151.60379 -25.375083 -172.434834 -152.71498 0.35644 -177.036746 155.901802 69.865391 -57.277685 179.223041 -19.116783 -139.62206 97.235722 41.248957 -44.212521 39.729565 -12.088144 -8.89235 159.843221 5.339286 -99.460012 -93.903792 -27.417168 -49.180919 154.426372 -10.051726 -141.234997 10.105431 73.52058 -32.927345 -32.300082 11.910793 7.180367 35.52295 32.13309 -5.02213 36.30873 -29.821166 28.844143 14.796574 -39.305588 37.87266 -96.671496 50.708176 -20.739778 82.257692 -19.465513 -14.890602 -19.292959 18.059224 121.222356 -55.92852 51.842874 -20.508024 -70.100825 13.157452 -13.837096 159.895919 -9.333974 -105.354302 -22.207568 -31.665803 111.849019 49.624256 42.047526 6.714873
-27.881899999999998 87.83619999999999 9.138 137.633797 -6.668913 -167.588409 -31.440761 30.315661 -148.829198 10.040602 9.949905 171.382994 12.598438 20.387125 124.675466 -15.620351 42.939603 -98.737322 143.53115 -25.194044 68.299644 -77.727991 14.591617 -18.054472 -26.252914 57.83583 34.755745 -115.650911 51.773831 103.842342 -152.508282 -1.300775 -92.49527 -1.367369 0.324322 3.535639 -178.45517 -35.107209 101.862396 -91.555735 31.975306 79.239624 -85.280572 49.509103 80.400193 -97.762901 -84.908882 -149.518188 -167.984247 27.351273 -178.527963 4.560463 65.073559 -41.350489 -129.601571 -31.970718 -147.151512 -163.198152 30.838555 -163.442245 -11.931737 -1.643135 6.610443 51.840149 29.064189 -35.657939 1.745362 30.643946 -4.88296 118.513578 -3.968941 -162.012308 -132.652452 56.472806 68.776691 26.809994 31.589705 -7.15451 -0.508101 -19.852812 7.007747 123.396365 -18.951466 -85.654733 170.082778 -20.919794 -107.035928 79.122248 18.269752 -51.262052 26.593894 52.153947 -34.908066 15.306787 56.000379 21.463576 -29.590253 22.777383 1.98397 -168.32266 -11.740569 175.232303 136.639624 0.850835 128.975863 129.991554 -31.173495 117.901511 -101.933819 52.060605 -20.460026 83.342302 -18.27339 -0.0 -15.768129 28.67311 -174.466841 -116.330804 -7.776861 170.490595 -12.28225 20.16264 19.48179 113.252359 -38.154793 34.661272 -31.861489 25.078665 -49.799991 131.489969 -2.877976 -136.382106
-29.683 87.5395 8.6768 137.216861 -5.123431 -167.123348 -33.957352 33.480519 -0.0 -0.73488 -17.566074 24.661137 -6.235256 14.632331 -73.17782 26.077317 -17.298904 96.463785 128.767375 -25.424284 50.392378 -74.337341 20.762217 -27.167234 -4.768502 38.140949 9.521337 -92.79913 42.178852 94.345289 7.241373 37.894325 -124.126813 172.412487 -16.551778 149.58402 1.819746 11.629281 -14.774248 -138.798639 -23.633044 70.960513 -135.727417 -42.986895 144.920007 98.09944 -71.196558 -0.552043 175.823626 52.595543 -174.663914 167.249935 -20.212561 159.843443 -42.38179 86.17715 58.774947 2.452553 -0.117172 -1.255588 -44.212143 79.372352 68.244054 -107.0279 17.707172 -153.848717 -2.910411 0.642325 2.492339 116.327708 -7.557417 175.686063 -158.113501 47.200864 96.080622 24.532898 24.826508 -7.508304 1.094573 -16.33018 10.054385 -13.122967 -18.569543 -19.184876 159.302498 -22.63676 -108.602905 0.861046 5.249576 -33.685619 27.655302 50.434954 -39.402316 7.201171 41.61257 26.020027 -22.499909 0.730544 1.174196 24.89822 -22.663408 11.129088 -14.051352 1.020827 6.00457 122.823894 -30.192485 126.081741 -37.25607 28.252293 -23.610224 6.253517 -46.434218 8.599766 14.519565 23.203955 87.579071 -133.425797 -38.636419 131.952984 66.142657 50.539138 22.299819 -7.075288 -80.32183 -13.084457 -23.974344 25.109655 -6.82909 136.49134 -5.997559 -90.350158
